<?xml version="1.0" encoding="utf-8"?>
<!-- Generator: Adobe Illustrator 15.0.0, SVG Export Plug-In . SVG Version: 6.00 Build 0)  -->
<!DOCTYPE svg PUBLIC "-//W3C//DTD SVG 1.1//EN" "http://www.w3.org/Graphics/SVG/1.1/DTD/svg11.dtd">
<svg version="1.1" id="Layer_1" xmlns="http://www.w3.org/2000/svg" xmlns:xlink="http://www.w3.org/1999/xlink" x="0px" y="0px"
	 width="144px" height="80.79px" viewBox="0 0 144 80.79" enable-background="new 0 0 144 80.79" xml:space="preserve">
<polygon fill="none" points="76.363,31.64 72.212,38.593 68.059,31.64 62.831,31.64 69.511,42.795 69.511,49.15 74.463,49.15 
	74.463,42.872 81.166,31.64 "/>
<path fill="#FFFFFF" d="M0,0v80.79h144V0H0z M74.463,49.15h-4.952v-6.354l-6.68-11.155h5.228l4.153,6.953l4.151-6.953h4.803
	l-6.703,11.231V49.15z M79.035,48.984c-1.272,0-2.303-1.03-2.303-2.303c0-1.271,1.03-2.302,2.303-2.302
	c1.271,0,2.302,1.03,2.302,2.302C81.337,47.954,80.307,48.984,79.035,48.984z"/>
</svg>
